<?xml version="1.0" encoding="utf-8"?>
<!-- Generator: Adobe Illustrator 27.0.0, SVG Export Plug-In . SVG Version: 6.00 Build 0)  -->
<svg version="1.1" id="Capa_1" xmlns="http://www.w3.org/2000/svg" xmlns:xlink="http://www.w3.org/1999/xlink" x="0px" y="0px"
	 width="806.9px" height="130.9px" viewBox="0 0 806.9 130.9" style="enable-background:new 0 0 806.9 130.9;" xml:space="preserve"
	>
<style type="text/css">
	.st0{fill:#DC63A1;}
	.st1{fill:#E8E000;}
	.st2{fill:#E7295A;}
	.st3{fill:#CC2F2F;}
	.st4{fill:#19B6DA;}
	.st5{fill:#327690;}
	.st6{fill:#191C36;}
	.st7{fill:#191D37;}
	.st8{fill:#FAB914;}
	.st9{fill:#75559F;}
	.st10{fill:#9CC31B;}
</style>
<path class="st0" d="M102.3,53.3c-3.3-7.8,1.3-17.8,9.4-20.5c8.3-2.8,17.7,2.1,20.3,10.2c2.7,8-1.8,17.5-10,20.2
	C114.3,65.7,104.7,61.2,102.3,53.3z"/>
<path class="st1" d="M7.2,87.8C3.9,80,8.5,70,16.6,67.2c8.3-2.8,17.7,2.1,20.3,10.2c2.7,8-1.8,17.5-10,20.2
	C19.3,100.2,9.7,95.7,7.2,87.8z"/>
<path class="st2" d="M56.3,30.5c-7.8,3.3-17.8-1.3-20.5-9.4C33,12.8,37.9,3.4,46,0.8c8-2.7,17.5,1.8,20.2,10
	C68.9,18.4,64.2,28,56.3,30.5z"/>
<path class="st3" d="M72.2,75.2c-5.3,2.2-11.9-0.9-13.8-6.3c-1.8-5.6,1.5-11.9,6.9-13.7c5.4-1.8,11.7,1.2,13.6,6.7
	C80.5,67,77.5,73.5,72.2,75.2z"/>
<path class="st4" d="M92.4,129.8c-7.8,3.3-17.8-1.3-20.5-9.4c-2.8-8.3,2.1-17.7,10.2-20.3c8-2.7,17.5,1.8,20.2,10
	C104.8,117.7,100.3,127.3,92.4,129.8z"/>
<path class="st5" d="M568.3,75.9c0-13.3,0-26.5,0-39.8c0-3.1-0.4-2.8,2.8-2.8c4.7,0,9.5,0,14.2,0c1.3,0,1.9,0.3,1.8,1.8
	c0,22.9,0,45.9,0,68.8c0,1.4-0.5,1.8-1.8,1.8c-4.9-0.1-9.8-0.1-14.6,0c-1.3,0-2.1-0.4-2.8-1.4c-10.6-13.6-21.2-27.1-31.9-40.6
	c-0.3-0.4-0.6-0.7-1-1.2c-0.4,0.8-0.3,1.5-0.3,2.2c0,13,0,26,0,39c0,1.6-0.4,2-2,2c-5.1-0.1-10.2-0.1-15.2,0c-1.3,0-1.7-0.3-1.7-1.6
	c0-23,0-46,0-69c0-1.3,0.4-1.7,1.7-1.7c5.1,0.1,10.3,0.1,15.4,0c1.2,0,1.8,0.5,2.5,1.3c7.6,9.9,15.3,19.7,22.9,29.5
	c3.1,4,6.4,8,9.6,12C568,76,568.1,75.9,568.3,75.9z"/>
<path class="st6" d="M208.1,79.7c-5.8,0-11.4-0.1-17.1,0c-1.7,0-2.1-0.5-2.1-2.1c0.1-3.7,0.1-7.3,0-11c0-1.3,0.4-1.6,1.6-1.6
	c12.2,0,24.4,0,36.7,0c0.7,0,1.4-0.1,1.5,1c0.4,8.5-0.7,16.6-5,24.1c-5.5,9.6-14.2,14.6-24.9,16.2c-9.2,1.4-18.3,0.8-26.9-3.4
	c-12-5.7-18.6-15.4-20.1-28.5C150.2,60.7,154.1,49,165,40c6.8-5.6,14.9-8,23.7-8.4c7.8-0.3,15.2,1,22.2,4.7
	c6.9,3.7,11.6,9.2,14.9,16.2c0.4,0.8,0.7,1.5-0.7,1.8c-5.4,1.1-10.8,2.3-16.2,3.4c-0.8,0.2-1.6,0.4-2.1-0.7
	c-3.6-7.8-13.4-10.3-21.1-8.4c-8.7,2.2-14.3,9.5-14.7,18.7c-0.2,6.5,0.8,12.5,5.3,17.5c4.8,5.4,10.9,6.7,17.8,5.9
	c6.7-0.8,11.6-3.9,14.1-10.4C208.1,80.3,208.1,80.1,208.1,79.7z"/>
<path class="st6" d="M301.6,56.4c0,7.7,0.4,15.5-0.1,23.2c-0.8,13.1-10.7,23.7-23.7,26.3c-9.3,1.8-18.4,1.5-27.1-2.9
	c-9.3-4.7-14.5-12.5-15.1-22.9c-0.9-15.2-0.2-30.4-0.4-45.6c0-1,0.3-1.4,1.3-1.4c5.4,0.1,10.8,0.1,16.2,0c1.7,0,1.4,1,1.4,1.9
	c0,13.9,0,27.7,0,41.6c0,6.3,3.3,11.2,8.7,13.1c6.1,2.2,13,0.6,16.8-4c2.2-2.7,3.1-5.8,3.1-9.3c0-13.7,0-27.3,0-41
	c0-1.7,0.3-2.4,2.2-2.4c5,0.2,10,0.1,15,0c1.5,0,1.7,0.5,1.7,1.8c-0.1,7.1,0,14.3,0,21.4C301.7,56.4,301.7,56.4,301.6,56.4z"/>
<path class="st5" d="M597.3,69.4c0-11.4,0-22.8,0-34.2c0-1.5,0.4-2,2-2c16.8,0.1,33.5,0.1,50.3,0c1.7,0,2.2,0.4,2.1,2.1
	c-0.1,3.7-0.1,7.3,0,11c0,1.5-0.4,2-2,2c-10.4-0.1-20.8,0-31.3-0.1c-1.8,0-2.3,0.4-2.2,2.2c0.2,3,0.2,6,0,9c-0.1,1.7,0.6,2,2.1,1.9
	c9.1-0.1,18.2,0,27.2,0c1.5,0,2.1,0.3,2,2c-0.1,3.6-0.1,7.2,0,10.8c0.1,1.8-0.6,2.2-2.3,2.2c-9-0.1-18,0-27-0.1c-1.5,0-2.1,0.3-2,2
	c0.1,3.5,0.1,6.9,0,10.4c0,1.5,0.4,1.9,1.9,1.9c10.6-0.1,21.1,0,31.7-0.1c1.8,0,2.4,0.5,2.3,2.3c-0.2,3.7-0.1,7.5,0,11.2
	c0,1.2-0.4,1.6-1.6,1.6c-17.2,0-34.3,0-51.5,0c-1.9,0-1.6-1-1.6-2.2C597.3,92.1,597.3,80.8,597.3,69.4L597.3,69.4z"/>
<path class="st7" d="M311.3,69.4c0-11.4,0-22.8,0-34.2c0-1.6,0.5-2,2-2c5.1,0.1,10.3,0.1,15.4,0c1.2,0,1.7,0.1,1.7,1.6
	c-0.1,22.9-0.1,45.9,0,68.8c0,1.5-0.3,2-2,2c-5.1-0.1-10.3-0.1-15.4,0c-1.5,0-1.8-0.5-1.7-1.8C311.4,92.3,311.4,80.9,311.3,69.4
	C311.4,69.4,311.4,69.4,311.3,69.4z"/>
<path class="st5" d="M486.8,69.4c0-11.4,0-22.8,0-34.2c0-1.5,0.4-2.1,2-2c4.8,0.1,9.6,0.1,14.4,0.1c2.7,0,2.7,0,2.7,2.7
	c0,18.7,0,37.5,0,56.2c0,3.7-0.1,7.5,0,11.2c0.1,1.7-0.3,2.3-2.2,2.3c-5-0.1-10-0.1-15,0c-1.6,0-2-0.4-2-2
	C486.8,92.2,486.8,80.8,486.8,69.4z"/>
<path class="st5" d="M66.4,42c-3.3-7.8,1.3-17.8,9.4-20.5c8.3-2.8,17.7,2.1,20.3,10.2c2.7,8-1.8,17.5-10,20.2
	C78.4,54.5,68.9,49.9,66.4,42z"/>
<path class="st8" d="M91.1,64.5c8.5-3,17.6,1.4,20.5,10.1c2.7,7.9-1.4,17-10,20c-8,2.8-17-1.9-19.9-10.4
	C79,76.3,83.3,67.2,91.1,64.5z"/>
<path class="st9" d="M51.1,78.9c8.3-2.9,17.5,1.6,20.3,10.2s-2.1,17.2-9.9,19.9c-8,2.8-17-1.8-19.8-10.4
	C39,90.2,43.3,81.6,51.1,78.9z"/>
<path class="st10" d="M55.8,46.1c2.9,7.8-1.3,17.2-9,20c-8.1,3-16.8-1.1-20-9c-3.5-8.8,0.6-17.6,8.2-20.6
	C43.6,33.2,52.6,37.5,55.8,46.1z"/>
<path class="st5" d="M729.7,60.4c-1.3-6.3-3.9-11.9-8.4-16.5c-7.3-7.6-16.6-10.5-26.7-10.8c-10.7-0.3-21.5,0-32.3-0.1
	c-1.8,0-2.2,0.6-2.2,2.3c0.1,11.3,0,22.7,0,34l0,0c0,11.5,0,22.9,0,34.4c0,1.4,0.2,2,1.8,2c10.4-0.1,20.8-0.1,31.3-0.1
	c3.3,0,6.7-0.3,9.9-1c8.6-1.9,16-6,21-13.4C730.6,81.8,731.9,71.4,729.7,60.4z M706.8,83.7c-3.2,4.1-7.6,6.2-12.7,6.5
	c-4.4,0.2-8.8,0-13.2,0.1c-1.3,0-1.7-0.4-1.7-1.7c0.1-6.4,0-12.8,0-19.2l0,0c0-6.3,0-12.7,0-19c0-1.4,0.3-1.9,1.8-1.8
	c4.7,0.2,9.5-0.4,14.2,0.3c9.4,1.3,14.9,7.7,16,17C711.7,72.3,710.9,78.4,706.8,83.7z"/>
<path class="st5" d="M804.4,103.8c-9.2-23-18.4-46-27.5-69c-0.5-1.2-1.2-1.5-2.4-1.5c-5.3,0.1-10.6,0.1-15.8,0
	c-1.5,0-2.2,0.5-2.7,1.9c-8,20.2-16.1,40.4-24.2,60.6c-1.3,3.2-2.5,6.4-3.8,9.9c6.6,0,12.8,0,19.1,0c1,0,1.2-0.6,1.5-1.3
	c1-2.7,2-5.4,2.9-8.1c0.3-0.9,0.7-1.3,1.7-1.3c8.7,0,17.5,0,26.2,0c1,0,1.5,0.4,1.8,1.3c1,2.8,2.1,5.5,3.2,8.2
	c0.2,0.6,0.4,1.2,1.3,1.2c6.3,0,12.7,0,19,0C804.9,104.8,804.6,104.3,804.4,103.8z M758.9,79.8c-1.7,0-1-1-0.7-1.7
	c2-5.4,4-10.8,6.1-16.2c0.6-1.5,1.2-3.1,1.8-4.6c0.2,0,0.3,0,0.5-0.1c2.9,7.5,5.7,14.9,8.7,22.6C769.5,79.7,764.2,79.7,758.9,79.8z"
	/>
<path class="st7" d="M412.1,103.8c-9.2-23.1-18.4-46.1-27.5-69.2c-0.4-1.1-1-1.5-2.2-1.5c-5.2,0.1-10.4,0.1-15.6,0
	c-1.7,0-2.5,0.5-3.1,2.1c-3.8,9.7-7.6,19.3-11.5,28.9c-5.3,13.3-10.7,26.6-16,39.9c-0.5,1.2-0.3,1.5,1,1.4c5.7-0.1,11.5-0.1,17.2,0
	c1.3,0,1.7-0.5,2.1-1.6c0.9-2.7,1.9-5.3,2.8-7.9c0.3-0.8,0.7-1.3,1.7-1.3c8.8,0,17.6,0,26.4,0c0.9,0,1.4,0.3,1.7,1.2
	c1,2.8,2,5.5,3.1,8.2c0.2,0.7,0.4,1.3,1.4,1.3c6.3,0,12.7,0,19.2,0C412.4,104.8,412.2,104.3,412.1,103.8z M366.3,79.8
	c-1.3,0-0.7-0.7-0.5-1.3c1.7-4.5,3.4-9.1,5.1-13.6c1-2.6,1.7-5.3,3.2-8c3,7.8,5.8,15.3,8.7,23C377.1,79.8,371.7,79.8,366.3,79.8z"/>
<path class="st5" d="M475.4,42.7c-5.6-7-13.3-9.5-21.9-9.7c-10.5-0.2-21.1,0-31.6-0.1c-1.7,0-2.3,0.3-2.3,2.2c0.1,11.3,0,22.7,0,34
	l0,0c0,5.7,0,11.5,0,17.2s0.1,11.5,0,17.2c0,1.5,0.3,2.1,2,2.1c5.1-0.1,10.1-0.1,15.2,0c1.6,0,1.9-0.6,1.9-2
	c-0.1-5.6,0.1-11.2-0.1-16.8c0-1.9,0.5-2.3,2.3-2.3c6.3-0.1,12.5,0.6,18.8-0.6c12.1-2.2,19.7-10.3,20.9-22.4
	C481.2,54.7,479.8,48.2,475.4,42.7z M461.7,60.1c-0.4,5.4-4.1,9.1-9.6,9.4c-4,0.2-8,0.1-12,0.2c-1.1,0-1.5-0.4-1.5-1.5
	c0.1-3.1,0-6.1,0-9.2h0.1c0-3.1,0-6.1,0-9.2c0-0.6-0.2-1.4,0.9-1.3c4.6,0.1,9.2-0.5,13.8,0.2C459.2,49.6,462.2,53.9,461.7,60.1z"/>
</svg>
