<?xml version="1.0" encoding="utf-8"?>
<!-- Generator: Adobe Illustrator 27.0.0, SVG Export Plug-In . SVG Version: 6.00 Build 0)  -->
<svg version="1.1" id="Capa_1" xmlns="http://www.w3.org/2000/svg" xmlns:xlink="http://www.w3.org/1999/xlink" x="0px" y="0px"
	 width="25px" height="25px" viewBox="0 0 25 25" style="enable-background:new 0 0 25 25;" xml:space="preserve">
<style type="text/css">
	.st0{fill:url(#SVGID_1_);}
	.st1{fill:#FFFFFF;}
</style>
<g>
	<linearGradient id="SVGID_1_" gradientUnits="userSpaceOnUse" x1="21.3358" y1="21.3358" x2="3.6642" y2="3.6642">
		<stop  offset="0" style="stop-color:#007BB8"/>
		<stop  offset="1" style="stop-color:#0044E9"/>
	</linearGradient>
	<circle class="st0" cx="12.5" cy="12.5" r="12.5"/>
	<g>
		<path class="st1" d="M6.2,9.6h2.7l0,8.7H6.2L6.2,9.6z M7.6,5.3c0.9,0,1.6,0.7,1.6,1.6c0,0.9-0.7,1.6-1.6,1.6C6.7,8.4,6,7.7,6,6.8
			C6,6,6.7,5.3,7.6,5.3"/>
		<path class="st1" d="M10.6,9.6h2.6v1.2h0c0.4-0.7,1.2-1.4,2.6-1.4c2.7,0,3.2,1.8,3.2,4.1v4.8h-2.7l0-4.2c0-1,0-2.3-1.4-2.3
			c-1.4,0-1.6,1.1-1.6,2.2l0,4.3h-2.7L10.6,9.6z"/>
	</g>
</g>
</svg>
