<?xml version="1.0" encoding="utf-8"?>
<!-- Generator: Adobe Illustrator 27.0.0, SVG Export Plug-In . SVG Version: 6.00 Build 0)  -->
<svg version="1.1" id="Capa_1" xmlns="http://www.w3.org/2000/svg" xmlns:xlink="http://www.w3.org/1999/xlink" x="0px" y="0px"
	 width="20px" height="25px" viewBox="0 0 20 25" style="enable-background:new 0 0 20 25;" xml:space="preserve">
<style type="text/css">
	.st0{fill:#006EF8;}
</style>
<g>
	<path class="st0" d="M14.8,0.1l-9.6,0c-2.2,0-4,1.8-4,4l0,16.8c0,2.2,1.8,4,4,4l9.6,0c2.2,0,4-1.8,4-4l0-16.8
		C18.8,1.9,17,0.1,14.8,0.1z M3.8,4.1c0-0.8,0.6-1.4,1.4-1.4l9.6,0c0.8,0,1.4,0.6,1.4,1.4l0,16.8c0,0.8-0.6,1.4-1.4,1.4H5.2
		c-0.8,0-1.4-0.6-1.4-1.4C3.8,20.9,3.8,4.1,3.8,4.1z"/>
	<path class="st0" d="M11.2,20.9l-2.4,0c-0.7,0-1.3-0.6-1.3-1.3l0,0c0-0.7,0.6-1.3,1.3-1.3h2.4c0.7,0,1.3,0.6,1.3,1.3l0,0
		C12.5,20.3,11.9,20.9,11.2,20.9z"/>
</g>
</svg>
