<?xml version="1.0" encoding="utf-8"?>
<!-- Generator: Adobe Illustrator 27.0.0, SVG Export Plug-In . SVG Version: 6.00 Build 0)  -->
<svg version="1.1" id="Capa_1" xmlns="http://www.w3.org/2000/svg" xmlns:xlink="http://www.w3.org/1999/xlink" x="0px" y="0px"
	 width="25px" height="25px" viewBox="0 0 25 25" style="enable-background:new 0 0 25 25;" xml:space="preserve">
<g>
	<path d="M15.326,12.397l-3.919-2.132c-0.161-0.092-0.71,0.024-0.71,0.209v4.157c0,0.182,0.545,0.299,0.706,0.212l4.094-2.025
		C15.663,12.728,15.491,12.49,15.326,12.397z"/>
	<path d="M12.5,0.059c-6.871,0-12.441,5.57-12.441,12.441S5.629,24.941,12.5,24.941c6.871,0,12.441-5.57,12.441-12.441
		S19.371,0.059,12.5,0.059z M20.865,14.624c0,1.972-1.598,3.57-3.57,3.57H8.167c-1.972,0-3.57-1.598-3.57-3.57v-4.248
		c0-1.971,1.598-3.57,3.57-3.57h9.129c1.972,0,3.57,1.598,3.57,3.57V14.624z"/>
</g>
</svg>
